# xmcd CD database file
#
# Track frame offsets:
#	187
#	17110
#	34915
#
# Disc length: 762 seconds
#
# Revision: 1
# Processed by: cddbd v1.5PL3 Copyright (c) Steve Scherf et al.
# Submitted via: CDex 1.50beta9
#
DISCID=1d02f803
DTITLE=THE GROOVERS - The Longest Night
DYEAR=1996
DGENRE=Rock
TTITLE0=The Longest Night
TTITLE1=スマイル
TTITLE2=ニューエイジ
EXTD=YEAR: 1996
EXTT0=
EXTT1=
EXTT2=
PLAYORDER=
